<svg fill="none" height="24" viewBox="0 0 24 24" width="24" xmlns="http://www.w3.org/2000/svg" xmlns:xlink="http://www.w3.org/1999/xlink"><linearGradient id="a" gradientUnits="userSpaceOnUse" x1="12" x2="12" y1="1" y2="23"><stop offset="0" stop-color="#e9f1ff"/><stop offset="1" stop-color="#c5d6ff"/></linearGradient><clipPath id="b"><path d="m0 0h24v24h-24z"/></clipPath><g clip-path="url(#b)"><path clip-rule="evenodd" d="m6 1c-2.76142 0-5 2.23858-5 5s2.23858 5 5 5h3c1.1046 0 2-.8954 2-2v-3c0-2.76142-2.23858-5-5-5zm0 12c-2.76142 0-5 2.2386-5 5s2.23858 5 5 5 5-2.2386 5-5v-3c0-1.1046-.8954-2-2-2zm7-7c0-2.76142 2.2386-5 5-5s5 2.23858 5 5-2.2386 5-5 5h-3c-1.1046 0-2-.8954-2-2zm0 9c0-1.1046.8954-2 2-2h3c2.7614 0 5 2.2386 5 5s-2.2386 5-5 5-5-2.2386-5-5z" fill="url(#a)" fill-rule="evenodd"/></g></svg>